<svg width="516" height="465" viewBox="0 0 516 465" fill="none" xmlns="http://www.w3.org/2000/svg">
<path d="M172.959 344.214C170.724 345.2 168.578 346.227 166.614 347.293C168.575 346.266 170.721 345.238 172.959 344.214ZM235.766 329.433C230.972 329.801 226.317 330.335 221.797 330.992C226.317 330.335 230.972 329.843 235.766 329.433Z" fill="url(#paint0_linear_2322_1038)"/>
<path d="M262.148 463.987C305.555 462.838 341.115 444.155 358.411 413.03C365.714 399.972 369.732 384.657 369.732 367.535C369.685 366.469 369.504 365.441 368.728 363.799C367.952 362.24 366.49 360.104 363.981 357.598C363.66 357.31 363.386 357.022 362.977 356.695C362.657 356.366 362.293 356.039 361.881 355.709C361.518 355.38 361.105 355.053 360.696 354.723C359.874 354.067 358.962 353.369 358.002 352.713C352.752 348.976 345.542 345.033 336.641 341.626C328.107 338.3 318.018 335.386 306.925 333.168C292.138 330.213 275.476 328.529 257.902 328.529C306.925 328.529 355.948 323.438 404.925 313.255C408.213 315.966 411.27 318.838 414.1 321.918C415.196 323.067 416.199 324.217 417.203 325.408C421.769 330.828 425.648 336.862 428.523 343.432C431.765 350.904 433.634 359.119 433.634 367.535C433.634 376.979 431.261 386.219 427.2 394.43C423.182 402.683 417.569 409.951 410.996 416.357C409.672 417.631 408.348 418.86 406.889 420.093C406.295 420.627 405.704 421.159 405.063 421.652C392.967 431.877 378.315 439.801 362.019 446.207C349.286 451.175 335.453 455.116 320.755 458.033C302.452 461.686 282.689 463.741 262.148 463.987Z" fill="url(#paint1_linear_2322_1038)"/>
<path d="M257.902 464.026C232.478 464.026 208.331 461.276 186.377 456.182C164.422 451.05 144.613 443.659 127.723 433.68C116.495 427.027 106.545 419.187 98.5554 409.66C93.9896 404.24 90.1104 398.205 87.281 391.635C83.996 384.163 82.1241 375.951 82.1703 367.532C82.1241 358.088 84.4978 348.849 88.5618 340.637C92.5795 332.384 98.2383 325.117 104.765 318.711C106.089 317.395 107.505 316.124 109.011 314.891C109.605 314.315 110.196 313.784 110.837 313.291C110.837 313.249 110.837 313.249 110.837 313.249C110.883 313.249 110.883 313.249 110.883 313.249C122.979 303.107 137.492 295.225 153.742 288.858C166.476 283.889 180.308 279.948 195.003 277.032C213.306 273.376 233.026 271.324 253.61 271.077C252.013 271.119 250.415 271.202 248.817 271.282C247.675 271.365 246.579 271.407 245.439 271.529C244.116 271.612 242.746 271.734 241.422 271.897C240.098 272.022 238.728 272.185 237.404 272.39C236.08 272.553 234.756 272.758 233.478 272.966C230.877 273.376 228.322 273.869 225.809 274.445C224.852 274.65 223.891 274.855 222.934 275.101C222.022 275.306 221.108 275.553 220.24 275.799C213.485 277.605 207.004 279.945 200.933 282.74C199.837 283.233 198.741 283.767 197.691 284.299C196.641 284.833 195.545 285.407 194.495 285.983C189.93 288.448 185.641 291.198 181.669 294.236C180.755 294.892 179.89 295.59 179.022 296.33C170.395 303.392 163.184 311.809 157.751 321.419C157.658 321.541 157.569 321.707 157.523 321.829C150.128 334.968 146.067 350.325 146.067 367.529C146.067 368.596 146.248 369.623 147.024 371.265C147.8 372.825 149.262 374.96 151.772 377.466C156.793 382.435 166.195 388.47 179.114 393.438C187.648 396.765 197.737 399.681 208.83 401.897C223.617 404.852 240.279 406.536 257.899 406.536C260.501 406.536 263.056 406.494 265.614 406.414H265.888C267.942 406.331 269.996 406.25 272.049 406.167C274.195 406.084 276.295 405.921 278.394 405.757C280.128 405.635 281.772 405.511 283.462 405.306C284.192 405.264 284.875 405.184 285.608 405.101C286.978 404.979 288.302 404.813 289.669 404.65C290.355 404.566 290.993 404.486 291.676 404.403C293.092 404.198 294.552 403.993 295.968 403.788C296.516 403.705 297.064 403.625 297.612 403.542C299.164 403.295 300.715 403.049 302.267 402.761C306.1 402.104 309.798 401.323 313.403 400.503C317.51 399.559 321.392 398.49 325.133 397.382C331.66 395.41 337.593 393.195 342.796 390.854C345.034 389.868 347.177 388.841 349.141 387.775C350.465 387.077 351.696 386.379 352.885 385.681C359.23 381.945 363.657 378.126 366.166 375.087C367.626 373.362 368.494 371.886 368.996 370.734C369.544 369.379 369.679 368.476 369.725 367.532C369.725 384.653 365.708 399.969 358.405 413.027C341.105 444.152 305.549 462.835 262.142 463.984C260.778 464.026 259.318 464.026 257.902 464.026Z" fill="url(#paint2_linear_2322_1038)"/>
<path d="M349.147 387.778C347.183 388.845 345.04 389.872 342.802 390.858C345.04 389.831 347.186 388.806 349.147 387.778Z" fill="url(#paint3_linear_2322_1038)"/>
<path d="M146.073 367.535C146.073 350.331 150.137 334.974 157.529 321.835C157.575 321.713 157.664 321.547 157.757 321.425C163.188 311.818 170.401 303.401 179.028 296.336C179.896 295.596 180.761 294.94 181.676 294.242C185.647 291.204 189.939 288.454 194.502 285.989C195.552 285.413 196.601 284.84 197.697 284.305C198.747 283.771 199.843 283.239 200.939 282.746C207.011 279.954 213.491 277.614 220.246 275.805C221.158 275.559 222.026 275.312 222.94 275.107C223.898 274.861 224.858 274.656 225.816 274.451C228.325 273.875 230.883 273.385 233.485 272.972C234.809 272.767 236.086 272.562 237.41 272.396C238.734 272.191 240.058 272.028 241.428 271.903C242.752 271.74 244.122 271.615 245.446 271.535C246.588 271.452 247.681 271.371 248.823 271.288C250.421 271.205 252.019 271.125 253.617 271.083H253.663C255.079 271.042 256.446 271.042 257.862 271.042H258.044C262.151 271.042 266.215 271 270.276 270.92C274.02 270.878 277.717 270.795 281.415 270.673C282.6 270.632 283.789 270.59 284.931 270.51C288.126 270.427 291.276 270.263 294.379 270.1C294.426 270.1 294.426 270.1 294.472 270.1C298.259 269.937 302.002 269.69 305.7 269.444C306.02 269.444 306.294 269.402 306.614 269.361C309.672 269.156 312.732 268.951 315.743 268.663C316.928 268.58 318.07 268.499 319.259 268.375C321.223 268.211 323.138 268.006 325.056 267.84C327.063 267.635 329.074 267.43 331.035 267.225C334.551 266.815 337.971 266.444 341.352 265.993C348.519 265.09 355.456 264.062 362.121 262.955C364.175 262.625 366.185 262.257 368.146 261.888C370.474 261.478 372.801 261.027 375.086 260.573C377.185 260.204 379.239 259.753 381.292 259.299C383.802 258.764 386.222 258.233 388.595 257.698C390.147 257.33 391.652 256.959 393.115 256.59C394.531 256.261 395.944 255.892 397.314 255.524C399.823 254.909 402.243 254.25 404.571 253.552C405.165 253.389 405.759 253.184 406.35 253.017C407.308 252.771 408.268 252.483 409.226 252.156C414.247 250.597 418.902 249.035 423.148 247.393C423.97 247.105 424.746 246.816 425.522 246.49C427.073 245.875 428.536 245.257 429.949 244.642C433.462 243.122 436.658 241.563 439.352 240.084C442.319 238.524 444.736 236.962 446.654 235.567C448.114 234.539 449.256 233.556 450.078 232.775C450.398 232.487 450.598 232.243 450.854 231.994C471.441 211.843 473.125 187.058 467.424 172.169C469.114 172.992 470.801 173.853 472.445 174.756C483.673 180.915 493.624 187.936 501.702 197.175C505.72 201.814 509.233 207.029 511.788 212.942C514.298 218.814 515.806 225.383 515.76 232.035C515.806 237.292 514.892 242.507 513.205 247.309C510.147 256.466 504.67 264.104 498.325 270.51C492.755 276.135 486.41 280.898 479.52 285.169C475.687 287.551 471.669 289.767 467.424 291.863C466.512 292.356 465.598 292.808 464.64 293.217C463.363 293.874 462.039 294.491 460.669 295.065C457.017 296.749 453.274 298.308 449.348 299.828C446.06 301.102 442.683 302.332 439.216 303.523C438.807 303.645 438.394 303.811 437.985 303.933C432.828 305.658 427.532 307.301 422.009 308.86C419.771 309.477 417.489 310.092 415.208 310.707C414.66 310.829 414.158 310.995 413.61 311.117C410.781 311.856 407.905 312.554 404.937 313.252C404.891 313.252 404.891 313.252 404.891 313.252C355.914 323.436 306.938 328.526 257.915 328.526H257.367C252.484 328.526 247.69 328.651 242.989 328.936C240.569 329.058 238.149 329.224 235.778 329.429C230.985 329.798 226.33 330.332 221.81 330.988C219.529 331.277 217.291 331.645 215.102 332.016C212.91 332.384 210.721 332.797 208.621 333.207C206.475 333.617 204.421 334.068 202.368 334.561C198.307 335.506 194.379 336.572 190.638 337.682C184.111 339.654 178.175 341.87 172.972 344.21C170.737 345.196 168.591 346.224 166.627 347.29C165.303 347.988 164.071 348.686 162.883 349.384C156.538 353.12 152.157 356.939 149.601 359.977C148.142 361.703 147.32 363.179 146.818 364.331C146.212 365.647 146.073 366.549 146.073 367.535Z" fill="url(#paint4_linear_2322_1038)"/>
<path d="M342.802 119.816C345.04 118.83 347.183 117.802 349.147 116.736C347.186 117.763 345.04 118.788 342.802 119.816ZM279.996 134.597C284.789 134.228 289.444 133.694 293.964 133.037C289.444 133.694 284.789 134.187 279.996 134.597Z" fill="url(#paint5_linear_2322_1038)"/>
<path d="M404.879 150.776C404.879 150.776 404.879 150.776 404.925 150.776C416.701 153.527 427.702 156.648 437.972 160.096C448.606 163.669 458.422 167.651 467.415 172.168C478.492 183.374 473.35 216.908 450.845 231.993C449.065 230.188 445.275 227.108 439.342 223.945C435.005 221.563 429.527 219.059 423.139 216.636C414.648 213.393 404.516 210.23 393.106 207.438C377.906 203.661 360.425 200.459 341.346 198.036C315.922 194.793 287.622 192.984 257.863 192.984C259.279 192.984 260.692 192.984 262.108 192.943H262.154C282.739 192.696 302.458 190.644 320.761 186.988C335.459 184.072 349.289 180.131 362.023 175.162C378.269 168.801 392.786 160.918 404.879 150.776Z" fill="url(#paint6_linear_2322_1038)"/>
<path d="M253.614 0.0419922C210.206 1.19135 174.647 19.8747 157.347 50.9988C150.045 64.0572 146.027 79.37 146.027 96.4941C146.073 97.5604 146.255 98.5879 147.03 100.23C147.806 101.79 149.269 103.925 151.778 106.431C152.098 106.719 152.372 107.005 152.782 107.334C153.102 107.664 153.465 107.991 153.878 108.32C154.241 108.65 154.653 108.976 155.063 109.306C155.885 109.962 156.796 110.66 157.757 111.317C163.006 115.053 170.217 118.994 179.117 122.403C187.651 125.729 197.741 128.643 208.833 130.861C223.624 133.817 240.283 135.5 257.856 135.5C208.833 135.5 159.81 140.591 110.834 150.774C107.546 148.063 104.488 145.191 101.659 142.111C100.563 140.962 99.5592 139.813 98.5556 138.622C93.9898 133.202 90.1106 127.167 87.235 120.597C83.9962 113.125 82.1243 104.914 82.1243 96.4941C82.1243 87.05 84.498 77.8108 88.5589 69.5991C92.5767 61.3459 98.1892 54.0786 104.762 47.6726C106.086 46.3986 107.41 45.1689 108.869 43.9365C109.464 43.402 110.055 42.8702 110.695 42.3773C122.791 32.1521 137.443 24.2284 153.739 17.8224C166.473 12.8539 180.306 8.91283 195 5.9965C213.31 2.34347 233.072 0.288482 253.614 0.0419922Z" fill="url(#paint7_linear_2322_1038)"/>
<path d="M166.614 76.2506C168.575 75.1844 170.721 74.1569 172.959 73.1709C170.721 74.1984 168.575 75.2231 166.614 76.2506Z" fill="url(#paint8_linear_2322_1038)"/>
<path d="M369.689 96.4932C369.689 113.698 365.625 129.055 358.233 142.193C358.186 142.318 358.097 142.481 358.005 142.603C352.574 152.211 345.36 160.628 336.734 167.693C335.865 168.432 335 169.088 334.086 169.786C330.114 172.825 325.823 175.575 321.26 178.04C320.21 178.616 319.16 179.189 318.064 179.724C317.014 180.258 315.918 180.79 314.822 181.283C308.751 184.074 302.27 186.415 295.515 188.223C294.604 188.47 293.736 188.716 292.821 188.921C291.864 189.168 290.903 189.373 289.946 189.578C287.437 190.154 284.878 190.644 282.277 191.056C280.953 191.261 279.675 191.466 278.351 191.633C277.027 191.838 275.704 192.001 274.334 192.126C273.01 192.289 271.64 192.414 270.316 192.494C269.174 192.577 268.078 192.657 266.938 192.74C265.341 192.823 263.743 192.904 262.145 192.945H262.099C260.682 192.987 259.315 192.987 257.899 192.987H257.718C253.611 192.987 249.547 193.028 245.486 193.109C241.742 193.15 238.044 193.233 234.35 193.355C233.161 193.397 231.976 193.438 230.834 193.519C227.638 193.602 224.489 193.765 221.385 193.929C221.339 193.929 221.339 193.929 221.293 193.929C217.506 194.092 213.762 194.338 210.065 194.585C209.745 194.585 209.471 194.626 209.15 194.668C206.093 194.873 203.033 195.078 200.022 195.366C198.837 195.449 197.694 195.529 196.506 195.654C194.545 195.817 192.627 196.022 190.709 196.188C188.701 196.393 186.691 196.598 184.73 196.803C181.214 197.213 177.79 197.584 174.413 198.036C167.245 198.939 160.309 199.966 153.644 201.074C151.59 201.404 149.58 201.772 147.618 202.14C145.291 202.55 142.963 203.002 140.679 203.453C138.579 203.821 136.526 204.276 134.472 204.727C131.963 205.261 129.543 205.793 127.169 206.328C125.618 206.696 124.112 207.067 122.65 207.436C121.234 207.765 119.82 208.134 118.45 208.502C115.941 209.117 113.521 209.776 111.194 210.474C110.6 210.637 110.008 210.842 109.414 211.008C108.457 211.255 107.496 211.543 106.539 211.87C101.517 213.429 96.8622 214.991 92.6166 216.633C91.7946 216.921 91.0187 217.209 90.2429 217.536C88.6912 218.151 87.2288 218.769 85.8156 219.383C82.3028 220.904 79.107 222.463 76.4131 223.942C73.4452 225.501 71.0284 227.063 69.1104 228.459C67.651 229.487 66.5088 230.47 65.6868 231.251C65.3666 231.539 65.1388 231.744 64.911 231.99C47.7931 249.563 43.7784 280.441 48.3411 291.857C46.654 291.034 44.9637 290.173 43.3197 289.27C32.0915 283.111 22.141 276.09 14.0623 266.851C10.0446 262.212 6.53172 256.997 3.97328 251.084C1.4641 245.212 -0.0445134 238.643 0.0016678 231.99C-0.0445134 226.734 0.869881 221.519 2.55703 216.716C5.61423 207.56 11.0913 199.922 17.4366 193.516C23.0061 187.891 29.3514 183.127 36.2416 178.857C40.0747 176.475 44.0924 174.259 48.338 172.163C49.2524 171.67 50.1637 171.218 51.1212 170.808C52.3989 170.152 53.7227 169.537 55.0928 168.961C58.7442 167.277 62.488 165.718 66.4134 164.197C69.7015 162.923 73.0789 161.694 76.5455 160.503C76.955 160.378 77.3676 160.215 77.7771 160.093C82.934 158.368 88.2294 156.725 93.7527 155.166C95.9909 154.551 98.2723 153.934 100.554 153.319C101.102 153.194 101.603 153.031 102.151 152.909C104.981 152.169 107.856 151.471 110.824 150.773C110.871 150.773 110.871 150.773 110.871 150.773C159.847 140.59 208.824 135.499 257.847 135.499H258.395C263.278 135.499 268.071 135.375 272.773 135.09C275.193 134.968 277.609 134.801 279.986 134.597C284.78 134.228 289.435 133.694 293.954 133.037C296.236 132.749 298.474 132.381 300.663 132.01C302.855 131.641 305.044 131.229 307.144 130.819C309.29 130.409 311.343 129.958 313.397 129.465C317.458 128.52 321.386 127.451 325.127 126.343C331.654 124.371 337.586 122.156 342.793 119.816C345.031 118.83 347.174 117.802 349.138 116.736C350.462 116.038 351.693 115.34 352.882 114.642C359.227 110.906 363.608 107.087 366.163 104.048C367.623 102.323 368.445 100.847 368.947 99.6948C369.55 98.382 369.689 97.4791 369.689 96.4932Z" fill="url(#paint9_linear_2322_1038)"/>
<path d="M110.883 313.253C110.883 313.253 110.883 313.253 110.837 313.253C99.0604 310.503 88.06 307.382 77.7893 303.933C67.1553 300.361 57.3403 296.378 48.3472 291.861C37.1868 277 42.6516 244.097 64.9171 232.036C66.6966 233.842 70.4865 236.922 76.4192 240.084C80.7541 242.466 86.2343 244.97 92.6227 247.393C101.114 250.636 111.246 253.799 122.656 256.591C137.856 260.369 155.337 263.57 174.416 265.994C199.84 269.237 228.14 271.045 257.899 271.045C256.483 271.045 255.07 271.045 253.654 271.087H253.607C233.023 271.333 213.304 273.385 195 277.041C180.302 279.958 166.473 283.899 153.739 288.867C137.492 295.229 122.976 303.111 110.883 313.253Z" fill="url(#paint10_linear_2322_1038)"/>
<path d="M257.856 0C283.28 0 307.427 2.75014 329.381 7.84333C351.336 12.9753 371.148 20.3672 388.035 30.3459C399.263 36.9983 409.213 44.8389 417.203 54.3662C421.768 59.7862 425.648 65.821 428.477 72.3903C431.765 79.8626 433.634 88.0743 433.588 96.4937C433.634 105.938 431.26 115.177 427.196 123.389C423.178 131.642 417.52 138.909 410.993 145.315C409.669 146.628 408.256 147.902 406.747 149.134C406.153 149.711 405.562 150.242 404.921 150.735C404.921 150.777 404.921 150.777 404.921 150.777C404.875 150.777 404.875 150.777 404.875 150.777C392.779 160.919 378.266 168.801 362.016 175.168C349.282 180.137 335.449 184.078 320.755 186.994C302.451 190.65 282.732 192.702 262.148 192.949C263.745 192.907 265.343 192.824 266.941 192.744C268.083 192.661 269.179 192.622 270.319 192.497C271.642 192.414 273.012 192.292 274.336 192.129C275.66 192.004 277.03 191.841 278.354 191.636C279.678 191.472 281.002 191.268 282.279 191.06C284.881 190.65 287.436 190.157 289.949 189.581C290.906 189.376 291.867 189.171 292.824 188.924C293.739 188.72 294.65 188.473 295.518 188.227C302.273 186.421 308.754 184.081 314.825 181.286C315.921 180.793 317.017 180.259 318.067 179.727C319.117 179.192 320.213 178.619 321.263 178.043C325.828 175.578 330.117 172.828 334.089 169.79C335.003 169.133 335.868 168.435 336.736 167.696C345.363 160.634 352.577 152.217 358.008 142.607C358.1 142.482 358.189 142.319 358.235 142.197C365.631 129.058 369.691 113.701 369.691 96.4965C369.691 95.4274 369.51 94.4027 368.734 92.7604C367.958 91.2011 366.496 89.0658 363.986 86.5593C358.965 81.5908 349.563 75.5559 336.644 70.5874C328.11 67.2611 318.021 64.3448 306.928 62.1292C292.138 59.1741 275.479 57.4902 257.859 57.4902C255.257 57.4902 252.702 57.5317 250.147 57.6121H249.873C247.819 57.6951 245.766 57.7755 243.712 57.8586C241.566 57.9416 239.466 58.105 237.367 58.2684C235.633 58.3903 233.989 58.5149 232.299 58.7199C231.569 58.7614 230.883 58.8417 230.153 58.9248C228.783 59.0467 227.459 59.2129 226.092 59.3763C225.409 59.4594 224.768 59.5396 224.085 59.6227C222.669 59.8277 221.209 60.0326 219.793 60.2376C219.245 60.3207 218.697 60.401 218.149 60.4841C216.597 60.7306 215.046 60.977 213.494 61.2651C209.661 61.9215 205.964 62.7025 202.358 63.5223C198.251 64.4667 194.369 65.5357 190.628 66.6435C184.101 68.6155 178.169 70.8311 172.962 73.1713C170.727 74.1573 168.581 75.1848 166.617 76.2511C165.293 76.949 164.062 77.647 162.873 78.3449C156.528 82.081 152.101 85.9002 149.592 88.9384C148.129 90.6638 147.264 92.14 146.762 93.2921C146.214 94.6464 146.079 95.5493 146.033 96.4965C143.409 80.0122 147.31 62.9933 155.127 50.1786C172.962 20.9433 210.209 1.19367 253.619 0.0443095C254.98 -3.21386e-06 256.443 0 257.856 0Z" fill="url(#paint11_linear_2322_1038)"/>
<defs>
<linearGradient id="paint0_linear_2322_1038" x1="201.189" y1="329.692" x2="201.189" y2="346.902" gradientUnits="userSpaceOnUse">
  <stop stop-color="#993AF9"/>
    <stop offset="0.0237" stop-color="#8F34E8"/>
    <stop offset="0.3446" stop-color="#7330C5"/>
    <stop offset="0.6258" stop-color="#5C2499"/>
    <stop offset="0.8538" stop-color="#46217D"/>
    <stop offset="1" stop-color="#401973"/>
</linearGradient>
<linearGradient id="paint1_linear_2322_1038" x1="345.77" y1="456.527" x2="345.77" y2="324.404" gradientUnits="userSpaceOnUse">
  <stop stop-color="#CC3AF9"/>
    <stop offset="0.216" stop-color="#B32EF9"/>
    <stop offset="0.5323" stop-color="#8819F9"/>
    <stop offset="1" stop-color="#4A17C6"/>
</linearGradient>
<linearGradient id="paint2_linear_2322_1038" x1="75.8333" y1="367.555" x2="371.051" y2="367.555" gradientUnits="userSpaceOnUse">
    <stop stop-color="#783AF9"/>
    <stop offset="0.0237" stop-color="#7439F5"/>
    <stop offset="0.3446" stop-color="#5D2FC3"/>
    <stop offset="0.6258" stop-color="#48279F"/>
    <stop offset="0.8538" stop-color="#3A2389"/>
    <stop offset="1" stop-color="#332181"/>
</linearGradient>
<linearGradient id="paint3_linear_2322_1038" x1="345.975" y1="388.126" x2="345.975" y2="396.9" gradientUnits="userSpaceOnUse">
<stop stop-color="#DB3AF9"/>
    <stop stop-color="#8B3AF9"/>
    <stop offset="0.0237" stop-color="#8334F0"/>
    <stop offset="0.3446" stop-color="#672BC5"/>
    <stop offset="0.6258" stop-color="#4C2399"/>
    <stop offset="0.8538" stop-color="#3A1E7D"/>
    <stop offset="1" stop-color="#351A73"/>
<stop offset="1" stop-color="#2721BB"/>
</linearGradient>
<linearGradient id="paint4_linear_2322_1038" x1="487.168" y1="269.852" x2="185.495" y2="269.852" gradientUnits="userSpaceOnUse">
<stop stop-color="#DB3AF9"/>
<stop offset="0.3869" stop-color="#B72DF9"/>
<stop offset="1" stop-color="#7817F9"/>
</linearGradient>
<linearGradient id="paint5_linear_2322_1038" x1="314.569" y1="134.324" x2="314.569" y2="117.114" gradientUnits="userSpaceOnUse">
    <stop stop-color="#8B3AF9"/>
    <stop offset="0.0237" stop-color="#8334F0"/>
    <stop offset="0.3446" stop-color="#672BC5"/>
    <stop offset="0.6258" stop-color="#4C2399"/>
    <stop offset="0.8538" stop-color="#3A1E7D"/>
    <stop offset="1" stop-color="#351A73"/>
</linearGradient>
<linearGradient id="paint6_linear_2322_1038" x1="285.023" y1="161.453" x2="438.393" y2="204.076" gradientUnits="userSpaceOnUse">
<stop stop-color="#6B3AF9"/>
<stop offset="0.0237" stop-color="#6939F5"/>
<stop offset="0.3446" stop-color="#4D2FC3"/>
<stop offset="0.6258" stop-color="#38279F"/>
<stop offset="0.8538" stop-color="#2C2389"/>
<stop offset="1" stop-color="#272181"/>
</linearGradient>
<linearGradient id="paint7_linear_2322_1038" x1="169.988" y1="7.4893" x2="169.988" y2="139.612" gradientUnits="userSpaceOnUse">
<stop stop-color="#DB3AF9"/>
<stop offset="0.216" stop-color="#B82EF9"/>
<stop offset="0.5323" stop-color="#7D19F9"/>
<stop offset="1" stop-color="#3B17C6"/>
</linearGradient>
<linearGradient id="paint8_linear_2322_1038" x1="169.783" y1="75.8892" x2="169.783" y2="67.1147" gradientUnits="userSpaceOnUse">
<stop stop-color="#DB3AF9"/>
<stop offset="0.1395" stop-color="#000"/>
<stop offset="0.4473" stop-color="#000"/>
<stop offset="0.5743" stop-color="#000"/>
<stop offset="0.6713" stop-color="#3537F2"/>
<stop offset="0.8092" stop-color="#3030E0"/>
<stop offset="0.9708" stop-color="#2924C1"/>
<stop offset="1" stop-color="#2721BB"/>
</linearGradient>
<linearGradient id="paint9_linear_2322_1038" x1="23.1117" y1="194.176" x2="363.333" y2="194.176" gradientUnits="userSpaceOnUse">
<stop stop-color="#7817F9"/>
<stop offset="0.6131" stop-color="#B72DF9"/>
<stop offset="1" stop-color="#DB3AF9"/>
</linearGradient>
<linearGradient id="paint10_linear_2322_1038" x1="-5.9619" y1="235.463" x2="138.006" y2="288.81" gradientUnits="userSpaceOnUse">
    <stop stop-color="#8B3AF9"/>
    <stop offset="0.0237" stop-color="#8334F0"/>
    <stop offset="0.3446" stop-color="#672BC5"/>
    <stop offset="0.6258" stop-color="#4C2399"/>
    <stop offset="0.8538" stop-color="#3A1E7D"/>
    <stop offset="1" stop-color="#351A73"/>
</linearGradient>
<linearGradient id="paint11_linear_2322_1038" x1="435.441" y1="96.4732" x2="147.683" y2="96.4732" gradientUnits="userSpaceOnUse">
    <stop stop-color="#993AF9"/>
    <stop offset="0.0237" stop-color="#8F34E8"/>
    <stop offset="0.3446" stop-color="#7330C5"/>
    <stop offset="0.6258" stop-color="#5C2499"/>
    <stop offset="0.8538" stop-color="#46217D"/>
    <stop offset="1" stop-color="#401973"/>
</linearGradient>
</defs>
</svg>
